<svg width="46" height="28" viewBox="0 0 46 28" fill="none" xmlns="http://www.w3.org/2000/svg">
<path d="M2 2H6.86468L8.30074 13.9199H9.64704C9.67097 13.8206 10.0659 9.84732 10.8318 2.00009H16.9889C17.7787 10.1012 18.1916 14.229 18.2275 14.3835H20.2559C21.1534 7.27573 21.656 3.14792 21.7637 2.00009H26.6284L24.6 14.5822H24.223V16.9166H20.5431V17.5126H23.451V21.0553H20.6686V24.1677H19.9147V25.5252H16.7913V17.8601H14.7629V15.0953C14.7629 14.8524 14.4936 12.6175 13.9551 8.39034H13.8653V8.42345L13.2011 13.9198H13.5243V22.4128H10.5264V25.7238H6.68504V22.4128H5.21308V14.5822H4.02833L2 2ZM36.627 2C40.2171 2 42.8116 2.76608 43.745 4.82998C45.24 10.4512 43.055 6.84513 43.055 6.84513L41.905 6.75984L41.744 6.61099L43.86 6.77273H43.929C44.0227 5.20496 43.055 6.84513 43.055 6.84513L43.17 6.31483L43.929 5.89059C44.32 6.84513 44.3698 8.62213 44.4535 9.64856C44.4535 9.70375 42.8799 9.8086 39.7325 9.96312V9.93001C39.7325 7.29219 38.7512 5.97327 36.7886 5.97327H36.286C34.814 5.97327 33.9165 6.54719 33.5933 7.69503C33.3301 8.66628 33.1984 9.94104 33.1984 11.5193V14.7476L33.1625 15.2277H31.529V15.9893H33.1625V21.734H40.0915V15.7575H44.0586V21.734H41.8506V25.4094H37.2372V25.7239H33.6471V25.4094H30.0031V23.5717H32.4265V22.777H28.8004V20.0619H27.2387V16.7176H28.0644C28.0285 15.327 28.0106 14.2343 28.0106 13.4397C28.0106 9.83061 28.2021 7.55701 28.585 6.61887C28.9321 5.53726 29.5065 4.60464 30.3083 3.82102C31.7324 2.60696 33.8386 2 36.627 2Z" fill="black"/>
</svg>
