<svg width="161" height="88" viewBox="0 0 161 88" fill="none" xmlns="http://www.w3.org/2000/svg">
<path d="M7 6.28571H24.0264L29.0526 43.7484H33.7646C33.8484 43.4362 35.2306 30.9487 37.9112 6.28597H59.461C62.2255 31.7465 63.6705 44.7196 63.7961 45.2053H70.8956C74.0369 22.8666 75.7961 9.89347 76.1731 6.28597H93.1994L86.1 45.8298H84.7806V53.1664H71.9007V55.0395H82.0785V66.1739H72.3401V75.9556H69.7013V80.2221H58.7694V56.1316H51.67V47.4422C51.67 46.6791 50.7276 39.6549 48.8428 26.3696H48.5286V26.4737L46.204 43.7481H47.3349V70.4402H36.8424V80.8463H23.3976V70.4402H18.2458V45.8297H14.0992L7 6.28571ZM128.194 6.28571C140.76 6.28571 149.84 8.69339 153.107 15.1799C158.34 32.8466 150.692 21.5133 150.692 21.5133L146.667 21.2452L146.104 20.7774L153.51 21.2857H153.751C154.08 16.3584 150.692 21.5133 150.692 21.5133L151.095 19.8466L153.751 18.5133C155.12 21.5133 155.294 27.0981 155.587 30.3241C155.587 30.4975 150.08 30.827 139.064 31.3126V31.2086C139.064 22.9183 135.629 18.7731 128.76 18.7731H127.001C121.849 18.7731 118.708 20.5769 117.577 24.1844C116.655 27.2369 116.195 31.2433 116.195 36.2036V46.3497L116.069 47.8585H110.352V50.252H116.069V68.3069H140.32V49.5236H154.205V68.3069H146.477V79.858H130.33V80.8466H117.765V79.858H105.011V74.0825H113.493V71.585H100.801V63.0517H95.3354V52.5411H98.2255C98.0999 48.1705 98.037 44.7365 98.037 42.239C98.037 30.8962 98.7072 23.7506 100.048 20.8022C101.262 17.4028 103.273 14.4717 106.079 12.0089C111.063 8.19328 118.435 6.28571 128.194 6.28571Z" fill="black"/>
</svg>
