<svg width="300" height="132"><defs id="SvgjsDefs1336"><linearGradient id="SvgjsLinearGradient1340"><stop id="SvgjsStop1341" stop-color="#006838" offset="0"></stop><stop id="SvgjsStop1342" stop-color="#96cf24" offset="1"></stop></linearGradient><linearGradient id="SvgjsLinearGradient1343"><stop id="SvgjsStop1344" stop-color="#006838" offset="0"></stop><stop id="SvgjsStop1345" stop-color="#96cf24" offset="1"></stop></linearGradient></defs><g id="SvgjsG1337" featurekey="root" fill="#080808"></g><g id="SvgjsG1338" featurekey="symbol1" fill="url(#SvgjsLinearGradient1343)" transform="matrix(0.7402062467810244,0,0,0.7402062467810244,7.985148270127391,28.973700627046753)"><title>06</title><g data-name="Group"><path data-name="Path" d="M88.66,26.42A9.8,9.8,0,0,0,77.76,35,10,10,0,0,0,77.69,36L61,38.26a12.63,12.63,0,0,0-1.18-1.83,12.42,12.42,0,0,0-7.28-4.52l.86-8.45a9.81,9.81,0,1,0-6-.52l-.93,9.18a12.48,12.48,0,0,0-8.2,7.54L22,39.06A9.8,9.8,0,1,0,11.34,51.28a10,10,0,0,0,1.19.07A9.78,9.78,0,0,0,21.66,45l15.85.61a12.55,12.55,0,0,0,5.05,8.62l-10,22.11-.2,0A9.8,9.8,0,0,0,30,95.81a10,10,0,0,0,1.19.07A9.8,9.8,0,0,0,38.85,80a9.92,9.92,0,0,0-.94-1L48.13,56.54l.3.05A12.4,12.4,0,0,0,56.12,55l16.1,15.73a9.8,9.8,0,0,0,7.73,13.82,10,10,0,0,0,1.19.07,9.8,9.8,0,1,0-4.85-18.31L60.48,50.89a12.44,12.44,0,0,0,1.88-5.23,12.69,12.69,0,0,0,.08-1.54l17.1-2.27c.08.11.16.23.24.34a9.74,9.74,0,0,0,6.54,3.68,9.79,9.79,0,0,0,10.9-8.55,9.8,9.8,0,0,0-8.55-10.9Z"></path></g></g><g id="SvgjsG1339" featurekey="text1" fill="url(#SvgjsLinearGradient1340)" transform="matrix(7.991979268852605,0,0,7.991979268852605,100.23414102990522,-69.84250819051526)"><path d="M-0.029297 9.990375 l2.6465 0 l0.78125 7.0313 l0.73242 0 q0.01953125 -0.087890625 0.64453125 -7.03125 l3.3496 0 q0.64453125 7.16796875 0.673828125 7.3046875 l1.1035 0 q0.732421875 -6.2890625 0.8203125 -7.3046875 l2.6465 0 l-1.1035 7.4219 l-0.20508 0 l0 1.377 l-2.002 0 l0 0.35156 l1.582 0 l0 2.0898 l-1.5137 0 l0 1.8359 l-0.41016 0 l0 0.80078 l-1.6992 0 l0 -4.5215 l-1.1035 0 l0 -1.6309 q0 -0.21484375 -0.439453125 -3.955078125 l-0.048828 0 l0 0.019531 l-0.36133 3.2422 l0.17578 0 l0 5.0098 l-1.6309 0 l0 1.9531 l-2.0898 0 l0 -1.9531 l-0.80078 0 l0 -4.6191 l-0.64453 0 z M1.1621 17.617175 l0.13672 0 l0.097656 0.30273 l0.019531 0 q0.068359375 -0.302734375 0.1171875 -0.302734375 l0.087891 0 l0 0.029297 q-0.13671875 0.478515625 -0.17578125 0.478515625 l-0.11719 0 q0 -0.068359375 -0.166015625 -0.5078125 z M1.1426 18.310575 l0.13672 0 l0 0.3418 q0 0.01953125 0.09765625 0.068359375 q0.087890625 -0.029296875 0.087890625 -0.068359375 l0 -0.3418 l0.13672 0 l0 0.25391 q0 0.1953125 -0.13671875 0.25390625 l-0.13672 0 q-0.185546875 0 -0.185546875 -0.25390625 l0 -0.25391 z M1.1426 18.994175 l0.3418 0 q0.0390625 0 0.09765625 0.09765625 l0 0.087891 l-0.048828 0.068359 q0.0390625 0.078125 0.068359375 0.25390625 l-0.13672 0 q0 -0.05859375 -0.01953125 -0.185546875 l-0.16602 0 l0 0.18555 l-0.087891 0 q-0.048828125 0 -0.048828125 -0.048828125 l0 -0.45898 z M1.2793 19.091775 l0 0.11719 l0.13672 0 q0.048828125 0 0.048828125 -0.048828125 q-0.01953125 -0.048828125 -0.01953125 -0.068359375 l-0.16602 0 z M1.2305 19.687475 l0.37109 0 l0 0.11719 l-0.22461 0 l0 0.068359 l0.15625 0 q0.048828125 0.009765625 0.048828125 0.048828125 l0 0.068359 l-0.20508 0 l0 0.20508 l-0.097656 0 q-0.048828125 0 -0.048828125 -0.048828125 l0 -0.45898 z M1.377 20.351575 q0.205078125 0.048828125 0.205078125 0.185546875 l-0.048828 0.019531 l-0.048828 0 l-0.087891 -0.087891 l-0.068359 0 q-0.09765625 0.0390625 -0.09765625 0.15625 q0 0.166015625 0.146484375 0.166015625 q0.087890625 -0.0390625 0.087890625 -0.068359375 l0 -0.019531 q-0.1171875 0 -0.1171875 -0.048828125 l0 -0.029297 q0.009765625 -0.0390625 0.048828125 -0.0390625 l0.18555 0 l0 0.29297 l-0.029297 0 q-0.01953125 0 -0.068359375 -0.01953125 l-0.13672 0.019531 l-0.019531 0 q-0.205078125 -0.029296875 -0.205078125 -0.205078125 l0 -0.087891 q0 -0.1953125 0.25390625 -0.234375 z M1.1426 21.064475 l0.13672 0 l0 0.18555 l0.18555 0 l0 -0.18555 l0.13672 0 l0 0.45898 q0 0.048828125 -0.048828125 0.048828125 l-0.087891 0 l0 -0.20508 l-0.18555 0 l0 0.20508 l-0.087891 0 q-0.048828125 0 -0.048828125 -0.048828125 l0 -0.45898 z M10.195 21.337875 l0.13672 0 q0.048828125 0.205078125 0.048828125 0.283203125 l0.019531 0 q0.068359375 -0.224609375 0.068359375 -0.283203125 l0.097656 0 q0.05859375 0 0.087890625 0.302734375 l0.029297 0 q0.0390625 -0.302734375 0.087890625 -0.302734375 l0.087891 0 q-0.107421875 0.5078125 -0.15625 0.5078125 l-0.097656 0 l-0.068359 -0.27344 l-0.019531 0 q-0.048828125 0.25390625 -0.048828125 0.2734375 l-0.13672 0 q-0.0390625 -0.1953125 -0.13671875 -0.5078125 z M10.215 22.031275 l0.11719 0 q0.048828125 0 0.09765625 0.13671875 q0.0390625 0 0.087890625 -0.13671875 l0.13672 0 l0 0.019531 l-0.13672 0.21484 q0 0.009765625 0.166015625 0.244140625 l0 0.029297 l-0.11719 0 q-0.05859375 0 -0.1171875 -0.166015625 q-0.1171875 0.166015625 -0.13671875 0.166015625 l-0.11719 0 q0 -0.01953125 0.166015625 -0.25390625 l0 -0.019531 l-0.14648 -0.21484 l0 -0.019531 z M18.808609375 9.990375 q2.9296875 0 3.69140625 1.826171875 q0.21484375 0.44921875 0.21484375 0.595703125 l-1.2305 0 l0 0.37109 l1.3184 0 l0 -0.019531 q0 -0.09765625 -0.087890625 -0.3515625 l2.2559 0 l0 0.37109 l-2.1387 0 l0 0.029297 q0.166015625 0.78125 0.234375 1.689453125 q0 0.048828125 -2.568359375 0.185546875 l0 -0.019531 q0 -2.333984375 -1.6015625 -2.333984375 l-0.27344 0 q-1.201171875 0 -1.46484375 1.015625 q-0.21484375 0.859375 -0.21484375 2.255859375 l0 1.9043 l-0.019531 0.2832 l-0.88867 0 l0 0.44922 l0.88867 0 l0 3.3887 l3.7695 0 l0 -3.5254 l2.1582 0 l0 3.5254 l-1.2012 0 l0 2.168 l-2.5098 0 l0 0.18555 l-1.9531 0 l0 -0.18555 l-1.9824 0 l0 -1.084 l1.3184 0 l0 -0.46875 l-1.9727 0 l0 -1.6016 l-0.84961 0 l0 -1.9727 l0.44922 0 q-0.029296875 -1.23046875 -0.029296875 -1.93359375 q0 -3.193359375 0.3125 -4.0234375 q0.283203125 -0.95703125 0.9375 -1.650390625 q1.162109375 -1.07421875 3.4375 -1.07421875 z M17.109409375 20.927775 l0.11719 0 l0 0.48828 l0.2832 0 l0 0.14648 l-0.40039 0 q-0.0390625 0 -0.0390625 -0.048828125 l0 -0.53711 q0 -0.048828125 0.0390625 -0.048828125 z M20.048809375 20.927775 l0.14648 0 q0.1171875 0.09765625 0.1171875 0.185546875 q0.01953125 0 0.166015625 -0.185546875 l0.11719 0 l0 0.048828 q-0.166015625 0.21484375 -0.166015625 0.302734375 q0.029296875 0 0.185546875 0.25390625 l0 0.029297 l-0.13672 0 l-0.16602 -0.18555 q-0.087890625 0.166015625 -0.13671875 0.185546875 l-0.14648 0 q0.048828125 -0.09765625 0.21484375 -0.33203125 l-0.19531 -0.2832 l0 -0.019531 z M21.982409375 21.777375 q0.234375 0.05859375 0.234375 0.13671875 l0 0.097656 l-0.097656 0 l-0.087891 -0.097656 l-0.097656 0 q-0.048828125 0.009765625 -0.048828125 0.048828125 l0 0.048828 q0.361328125 0.068359375 0.361328125 0.15625 l0 0.078125 q0 0.185546875 -0.21484375 0.185546875 l-0.097656 0 q-0.126953125 0 -0.205078125 -0.13671875 l0 -0.097656 l0.13672 0 q0 0.1171875 0.13671875 0.1171875 l0.029297 0 q0.029296875 0 0.068359375 -0.068359375 q0 -0.029296875 -0.33203125 -0.166015625 l-0.019531 -0.048828 l0 -0.11719 q0 -0.078125 0.234375 -0.13671875 z"></path></g></svg>
